<svg width="422" height="113" viewBox="0 0 422 113" fill="none" xmlns="http://www.w3.org/2000/svg">
<path d="M4.56 110.72C3.2 110.72 1.88 110.08 0.6 108.8C0.36 108.8 0.24 108.44 0.24 107.72C0.48 105.72 1.16 104.36 2.28 103.64C4.28 102.92 7.28 102 11.28 100.88C15.84 97.44 20 93.6 23.76 89.36C16.88 87.84 11.28 84.08 6.96 78.08C2.72 72 0.6 64.12 0.6 54.44C0.6 43.24 4.12 33.04 11.16 23.84C14.84 18.96 20.08 14.84 26.88 11.48C33.68 8.04 41.64 5.83999 50.76 4.87999L52.8 7.88L49.32 14.84C53.32 18.28 56.6 23.2 59.16 29.6C61.8 36 63.12 42.2 63.12 48.2C63.12 54.12 62.56 59.32 61.44 63.8C60.32 68.2 58.6 72.32 56.28 76.16C54.04 80 50.92 83.16 46.92 85.64C42.92 88.12 38.28 89.56 33 89.96C30.6 92.68 27.72 95.52 24.36 98.48C26.76 98.24 30.16 98.12 34.56 98.12C38.96 98.12 43.92 98.88 49.44 100.4L51.12 103.4L46.08 112.88C40.16 109.2 30.96 107.36 18.48 107.36C15.28 107.36 12.96 107.4 11.52 107.48C9.36 108.76 7.68 109.6 6.48 110C5.28 110.48 4.64 110.72 4.56 110.72ZM32.88 80.12C40.16 79.88 45.72 77.16 49.56 71.96C53.48 66.76 55.44 60.68 55.44 53.72C55.44 46.68 54.28 39.68 51.96 32.72C49.64 25.76 46.4 20.2 42.24 16.04C32.08 17.48 24.52 21.28 19.56 27.44C14.6 33.52 12.12 41.2 12.12 50.48C12.12 59.68 14.12 66.92 18.12 72.2C22.2 77.48 27.12 80.12 32.88 80.12ZM85.8066 29.84C84.6866 40.48 84.1266 49 84.1266 55.4C84.1266 67.96 86.4866 74.24 91.2066 74.24C94.1666 74.24 97.2466 72.24 100.447 68.24C103.647 64.16 106.447 58.36 108.847 50.84C108.767 49.56 108.727 46.96 108.727 43.04C108.727 39.12 109.087 35.12 109.807 31.04L119.407 26.84L122.407 28.52C119.767 36.28 118.447 45.24 118.447 55.4C118.447 59.8 118.767 65.84 119.407 73.52C120.127 81.2 120.847 86.36 121.567 89C121.567 89.24 120.927 89.36 119.647 89.36C118.447 89.36 117.287 88.8 116.167 87.68C113.767 81.92 111.727 73.24 110.047 61.64C106.767 69.56 102.767 76.04 98.0466 81.08C93.4066 86.12 89.0066 88.64 84.8466 88.64C78.4466 88.64 75.2466 84.12 75.2466 75.08C75.2466 68.92 75.5666 63.12 76.2066 57.68C76.9266 52.24 77.6066 47.08 78.2466 42.2C78.9666 37.32 79.4866 33.6 79.8066 31.04C80.2066 30.64 81.0066 30.28 82.2066 29.96C83.4066 29.56 84.2866 29.36 84.8466 29.36C85.4866 29.36 85.8066 29.52 85.8066 29.84ZM149.016 32.48C149.176 34.88 149.256 37.36 149.256 39.92C149.256 53.84 146.816 69.16 141.936 85.88C140.816 87 139.296 87.56 137.376 87.56C136.976 87.56 136.696 87.52 136.536 87.44C136.456 87.36 136.456 87.24 136.536 87.08C138.456 75.64 139.416 65.12 139.416 55.52C139.416 45.92 138.416 37.28 136.416 29.6L139.296 27.8L149.016 32.48ZM144.096 20.6C142.096 20.6 140.536 19.92 139.416 18.56C138.376 17.2 137.856 15.48 137.856 13.4C137.856 11.32 138.776 9.52 140.616 8C142.456 6.4 145.136 5.36 148.656 4.87999C151.056 6.88 152.256 9.28 152.256 12.08C152.256 14.8 151.416 16.92 149.736 18.44C148.056 19.88 146.176 20.6 144.096 20.6ZM211.349 7.88L207.389 18.2C205.149 17.88 202.789 17.72 200.309 17.72C194.709 17.72 189.829 18.72 185.669 20.72C181.509 22.64 178.349 25.2 176.189 28.4C172.109 34.72 170.069 41.64 170.069 49.16C170.069 59 171.589 66.52 174.629 71.72C177.669 76.84 181.309 79.4 185.549 79.4C190.989 79.4 195.549 77.24 199.229 72.92C202.909 68.6 206.029 61.96 208.589 53C208.749 52.36 209.029 52.04 209.429 52.04C210.549 52.04 211.789 52.6 213.149 53.72C211.549 64.68 207.869 73.44 202.109 80C196.429 86.56 190.029 89.84 182.909 89.84C175.869 89.84 170.189 86.72 165.869 80.48C161.549 74.24 159.389 66 159.389 55.76C159.389 46.96 161.669 38.72 166.229 31.04C168.709 26.8 171.789 22.96 175.469 19.52C179.149 16.08 183.909 13.04 189.749 10.4C195.589 7.75999 202.109 5.87999 209.309 4.75999L211.349 7.88ZM264.423 31.4L261.303 44.12C259.943 43.8 258.543 43.64 257.103 43.64C252.543 43.64 248.063 45.64 243.663 49.64C245.983 56.04 249.183 63 253.263 70.52C257.423 77.96 261.503 83.88 265.503 88.28V88.4C265.503 89.28 264.183 89.72 261.543 89.72C260.823 89.72 260.343 89.68 260.103 89.6C255.783 85.92 251.263 80.96 246.543 74.72C241.823 68.4 238.423 63.2 236.343 59.12L236.223 59C232.863 64.76 230.663 70.84 229.623 77.24L229.143 77.72L227.223 86.24C226.743 86.8 225.943 87.28 224.823 87.68C223.783 88.08 222.983 88.28 222.423 88.28C221.863 88.28 221.583 88.08 221.583 87.68C224.943 72 226.623 56.52 226.623 41.24C226.623 25.96 225.063 13.04 221.943 2.48L224.943 0.559999L234.543 5.12C235.343 11.12 235.743 18.08 235.743 26C235.743 33.84 234.783 44.12 232.863 56.84C240.143 42.04 249.623 32.8 261.303 29.12L264.423 31.4ZM306.446 31.04L316.166 26.84L319.046 28.52C316.406 36.28 315.086 45.24 315.086 55.4C315.086 59.72 315.446 65.72 316.166 73.4C316.886 81.08 317.566 86.28 318.206 89C318.206 89.24 317.606 89.36 316.406 89.36C315.206 89.36 314.046 88.8 312.926 87.68C310.366 81.76 308.326 73.04 306.806 61.52C303.446 69.52 299.406 76.04 294.686 81.08C290.046 86.12 285.846 88.64 282.086 88.64C274.886 88.64 271.286 84.12 271.286 75.08C271.286 69.88 272.326 64.88 274.406 60.08C276.486 55.28 279.286 51.08 282.806 47.48C289.846 40.36 297.726 34.88 306.446 31.04ZM288.566 74.24C291.126 74.24 293.966 72.2 297.086 68.12C300.286 63.96 303.126 58.12 305.606 50.6C305.526 49.48 305.486 47.32 305.486 44.12C305.486 40.92 305.526 38.56 305.606 37.04C298.726 40.96 293.166 45.16 288.926 49.64C284.686 54.04 282.566 59.24 282.566 65.24C282.566 71.24 284.566 74.24 288.566 74.24ZM366.173 29.36L362.333 40.04C358.653 37.64 355.013 36.44 351.413 36.44C345.493 36.44 342.533 38.72 342.533 43.28C342.533 46.4 345.013 50.04 349.973 54.2C352.133 55.96 354.253 57.8 356.333 59.72C361.293 64.28 363.773 68.88 363.773 73.52C363.773 77.12 362.413 80.56 359.693 83.84C358.173 85.6 355.693 87 352.253 88.04C348.893 89.16 345.013 89.72 340.613 89.72C336.213 89.72 332.253 89.16 328.733 88.04C328.333 87.72 327.853 87 327.293 85.88C326.813 84.68 326.573 83.84 326.573 83.36C326.573 82.88 326.653 82.64 326.813 82.64C327.053 82.64 327.653 82.76 328.613 83C331.013 83.64 334.053 83.96 337.733 83.96C341.413 83.96 344.493 83.16 346.973 81.56C349.533 79.96 350.813 77.92 350.813 75.44C350.813 72.96 349.773 70.52 347.693 68.12C345.693 65.72 343.453 63.56 340.973 61.64C338.573 59.72 336.333 57.36 334.253 54.56C332.253 51.68 331.253 48.8 331.253 45.92C331.253 43.36 332.093 41.08 333.773 39.08C335.533 37 337.533 35.28 339.773 33.92C345.213 30.72 353.133 28.44 363.533 27.08L366.173 29.36ZM411.313 88.28C412.433 77.48 412.993 68.92 412.993 62.6C412.993 50.04 410.633 43.76 405.913 43.76C402.393 43.76 398.713 46.68 394.873 52.52C391.113 58.36 387.993 66.6 385.513 77.24H385.393C384.993 79.24 384.233 82.72 383.113 87.68C382.633 88.24 381.833 88.72 380.713 89.12C379.673 89.52 378.793 89.72 378.073 89.72C377.433 89.72 377.113 89.52 377.113 89.12C380.713 72.4 382.513 56.44 382.513 41.24C382.513 25.96 380.953 13.04 377.833 2.48L380.833 0.559999L390.433 5.12C391.233 10.48 391.633 16.88 391.633 24.32C391.633 31.68 390.993 40.4 389.713 50.48C393.073 44.08 396.753 38.96 400.753 35.12C404.833 31.28 408.673 29.36 412.273 29.36C418.673 29.36 421.873 33.88 421.873 42.92C421.873 50.36 421.193 59 419.833 68.84C418.473 78.6 417.673 84.64 417.433 86.96C416.313 88.08 414.553 88.64 412.153 88.64C411.593 88.64 411.313 88.52 411.313 88.28Z" fill="#FFD600"/>
</svg>
